simulation
nRows=68
nColumns=15
endheader
time  TH_x TH_y TH_z SC_y  SC_z  SC_x  AC_y  AC_z  AC_x  GH_y  GH_z  GH_yy  EL_x  PS_y
0.000000  0.000000  0.000000  0.000000  -40.808447  4.038978  22.282357  55.645439  6.752178  5.593414  63.949276  52.011313  -66.691725  24.283581  103.198018
0.045455  0.000000  0.000000  0.000000  -40.633469  4.360967  22.755155  55.697413  6.731207  5.642051  64.311337  52.117601  -66.444063  23.945063  103.404983
0.090909  0.000000  0.000000  0.000000  -40.553120  4.558481  23.028288  55.735389  6.755637  5.662436  64.647880  52.215948  -66.429150  23.734019  103.251691
0.136364  0.000000  0.000000  0.000000  -40.548917  4.643368  23.134896  55.745823  6.798799  5.656060  64.957216  52.294682  -66.611272  23.633160  102.738758
0.181818  0.000000  0.000000  0.000000  -40.602378  4.627479  23.094580  55.733356  6.847928  5.628050  65.237652  52.342131  -66.954714  23.625196  101.866804
0.227273  0.000000  0.000000  0.000000  -40.695022  4.522662  22.912756  55.712022  6.903658  5.589392  65.487497  52.346623  -67.423762  23.692838  100.636447
0.272727  0.000000  0.000000  0.000000  -40.808365  4.340768  22.588684  55.699063  6.972004  5.554212  65.705061  52.296486  -67.982703  23.818797  99.048305
0.318182  0.000000  0.000000  0.000000  -40.923926  4.093645  22.128217  55.710967  7.052863  5.533741  65.888652  52.180048  -68.595821  23.985785  97.102996
0.363636  0.000000  0.000000  0.000000  -41.023222  3.793144  21.538856  55.760127  7.143834  5.539496  66.036579  51.985638  -69.227403  24.176513  94.801139
0.409091  0.000000  0.000000  0.000000  -41.087771  3.451113  20.834277  55.854047  7.236839  5.580321  66.147151  51.701583  -69.841735  24.373691  92.143351
0.454545  0.000000  0.000000  0.000000  -41.099092  3.079403  20.031072  55.995988  7.321604  5.663243  66.218677  51.316212  -70.403102  24.560030  89.130251
0.500000  0.000000  0.000000  0.000000  -41.039294  2.689750  19.147032  56.186941  7.388130  5.792625  66.250689  50.818888  -70.877371  24.719390  85.766541
0.545455  0.000000  0.000000  0.000000  -40.900146  2.292069  18.197279  56.418383  7.431680  5.965961  66.262628  50.215839  -71.256164  24.854316  82.123415
0.590909  0.000000  0.000000  0.000000  -40.681273  1.894791  17.200426  56.676390  7.446198  6.173160  66.290138  49.527016  -71.552056  24.982561  78.326169
0.636364  0.000000  0.000000  0.000000  -40.382527  1.506302  16.173615  56.947983  7.426089  6.405980  66.369329  48.772764  -71.778228  25.122316  74.501667
0.681818  0.000000  0.000000  0.000000  -40.003762  1.134992  15.137220  57.219213  7.361519  6.656855  66.536314  47.973432  -71.947865  25.291775  70.776774
0.727273  0.000000  0.000000  0.000000  -39.545114  0.788999  14.117416  57.474268  7.236169  6.918100  66.826601  47.149330  -72.074089  25.508833  67.276966
0.772727  0.000000  0.000000  0.000000  -39.020124  0.464766  13.128581  57.712434  7.055986  7.187128  67.247152  46.319073  -72.167213  25.777368  64.062118
0.818182  0.000000  0.000000  0.000000  -38.461257  0.142221  12.165844  57.957073  6.862921  7.465954  67.764622  45.498875  -72.233579  26.081460  61.099476
0.863636  0.000000  0.000000  0.000000  -37.902409  -0.199957  11.218381  58.233122  6.706259  7.757847  68.342624  44.704772  -72.279233  26.403698  58.349293
0.909091  0.000000  0.000000  0.000000  -37.377475  -0.583090  10.268257  58.565220  6.642045  8.068408  68.944769  43.952798  -72.310217  26.726668  55.771821
0.954545  0.000000  0.000000  0.000000  -36.920328  -1.028464  9.300845  58.978277  6.724207  8.399914  69.534688  43.258982  -72.332572  27.032971  53.327365
1.000000  0.000000  0.000000  0.000000  -36.556180  -1.544103  8.303751  59.481889  6.990778  8.752838  70.083697  42.637500  -72.351037  27.310992  50.997511
1.045455  0.000000  0.000000  0.000000  -36.288471  -2.104700  7.298685  60.049158  7.413638  9.112280  70.582422  42.097864  -72.367079  27.563647  48.817323
1.090909  0.000000  0.000000  0.000000  -36.117277  -2.679793  6.307169  60.647536  7.958646  9.464895  71.024475  41.648866  -72.381658  27.796098  46.830139
1.136364  0.000000  0.000000  0.000000  -36.042674  -3.238923  5.358275  61.245350  8.584539  9.795007  71.403467  41.299297  -72.395737  28.013509  45.079291
1.181818  0.000000  0.000000  0.000000  -36.064737  -3.751626  4.483177  61.811509  9.247523  10.087726  71.713011  41.057949  -72.410277  28.221041  43.608114
1.227273  0.000000  0.000000  0.000000  -36.177664  -4.189946  3.715157  62.317400  9.899599  10.330964  71.946724  40.926862  -72.425670  28.423362  42.454116
1.272727  0.000000  0.000000  0.000000  -36.348109  -4.537651  3.085833  62.743673  10.485661  10.524407  72.098255  40.876441  -72.439655  28.622818  41.627492
1.318182  0.000000  0.000000  0.000000  -36.534672  -4.781942  2.626031  63.074160  10.948073  10.672885  72.161261  40.867837  -72.449191  28.821072  41.130444
1.363636  0.000000  0.000000  0.000000  -36.695948  -4.910023  2.366107  63.293018  11.229197  10.782431  72.129398  40.862197  -72.451235  29.019791  40.965178
1.409091  0.000000  0.000000  0.000000  -36.790532  -4.909095  2.335188  63.384185  11.272859  10.858857  71.996324  40.820669  -72.442748  29.220638  41.133894
1.454545  0.000000  0.000000  0.000000  -36.782420  -4.768441  2.557968  63.332217  11.033134  10.903733  71.758781  40.711304  -72.421439  29.420751  41.642558
1.500000  0.000000  0.000000  0.000000  -36.684697  -4.496291  3.026644  63.133541  10.540505  10.898580  71.441583  40.564953  -72.391845  29.576063  42.531353
1.545455  0.000000  0.000000  0.000000  -36.536659  -4.110982  3.711991  62.790853  9.870361  10.814841  71.084531  40.445988  -72.362149  29.620515  43.858728
1.590909  0.000000  0.000000  0.000000  -36.377847  -3.630949  4.577713  62.307053  9.105134  10.625657  70.727563  40.419096  -72.340565  29.487843  45.683302
1.636364  0.000000  0.000000  0.000000  -36.247799  -3.074626  5.581794  61.685998  8.331752  10.307879  70.410621  40.548961  -72.335310  29.111782  48.063698
1.681818  0.000000  0.000000  0.000000  -36.185248  -2.460691  6.676107  60.934426  7.639444  9.846524  70.171764  40.897301  -72.353047  28.430239  51.052742
1.727273  0.000000  0.000000  0.000000  -36.212450  -1.812792  7.812169  60.093660  7.087641  9.268367  70.010757  41.465256  -72.368767  27.466201  54.585196
1.772727  0.000000  0.000000  0.000000  -36.336277  -1.159212  8.949421  59.236772  6.700570  8.636195  69.891604  42.197414  -72.327893  26.322086  58.485585
1.818182  0.000000  0.000000  0.000000  -36.563012  -0.528417  10.060985  58.438518  6.487635  8.012043  69.776944  43.036196  -72.174714  25.103355  62.574212
1.863636  0.000000  0.000000  0.000000  -36.898937  0.051130  11.127688  57.773722  6.450500  7.456650  69.629411  43.924024  -71.853521  23.915468  66.671381
1.909091  0.000000  0.000000  0.000000  -37.350028  0.551188  12.141914  57.316949  6.580373  7.025026  69.412012  44.803574  -71.309433  22.863353  70.598204
1.954545  0.000000  0.000000  0.000000  -37.901189  0.958759  13.094822  57.096690  6.852696  6.742929  69.113037  45.634920  -70.544267  22.015533  74.231045
2.000000  0.000000  0.000000  0.000000  -38.503092  1.285603  13.980146  57.066605  7.214150  6.584744  68.761846  46.406400  -69.651946  21.381385  77.536032
2.045455  0.000000  0.000000  0.000000  -39.103274  1.545750  14.784795  57.172420  7.615903  6.521563  68.391565  47.108942  -68.734831  20.964870  80.487513
2.090909  0.000000  0.000000  0.000000  -39.649272  1.753230  15.489526  57.358894  8.015323  6.526018  68.035316  47.733473  -67.895286  20.769950  83.059837
2.136364  0.000000  0.000000  0.000000  -40.088636  1.922067  16.077558  57.570679  8.368460  6.568268  67.726219  48.270921  -67.235639  20.800569  85.227369
2.181818  0.000000  0.000000  0.000000  -40.385910  2.061287  16.538652  57.761407  8.644305  6.623186  67.489802  48.713976  -66.821237  21.042598  86.980882
2.227273  0.000000  0.000000  0.000000  -40.555352  2.165286  16.893958  57.912239  8.838232  6.674311  67.329397  49.060478  -66.609212  21.429029  88.359159
2.272727  0.000000  0.000000  0.000000  -40.620267  2.225800  17.162428  58.009085  8.956874  6.711400  67.244292  49.309202  -66.537006  21.883234  89.409723
2.318182  0.000000  0.000000  0.000000  -40.603960  2.234563  17.371017  58.038806  8.999817  6.720329  67.233778  49.458926  -66.542063  22.328582  90.180091
2.363636  0.000000  0.000000  0.000000  -40.529736  2.183310  17.544940  57.988259  8.967875  6.688285  67.297145  49.508424  -66.561826  22.688443  90.717786
2.409091  0.000000  0.000000  0.000000  -40.419978  2.072378  17.705914  57.847910  8.869444  6.608541  67.428753  49.463781  -66.534173  22.899276  91.081474
2.454545  0.000000  0.000000  0.000000  -40.292017  1.949385  17.899842  57.631379  8.718869  6.483162  67.595862  49.371236  -66.399361  22.969465  91.391105
2.500000  0.000000  0.000000  0.000000  -40.161456  1.878106  18.173293  57.359126  8.539435  6.320564  67.756469  49.290756  -66.098465  22.931979  91.787567
2.545455  0.000000  0.000000  0.000000  -40.043895  1.922332  18.566096  57.050654  8.360786  6.131827  67.868565  49.282318  -65.572558  22.819807  92.411769
2.590909  0.000000  0.000000  0.000000  -39.954935  2.145853  19.126941  56.726201  8.205812  5.922181  67.890141  49.405899  -64.762713  22.665938  93.404618
2.636364  0.000000  0.000000  0.000000  -39.909443  2.605936  19.898482  56.406955  8.098561  5.699599  67.784276  49.716290  -63.618191  22.501349  94.889162
2.681818  0.000000  0.000000  0.000000  -39.914280  3.288650  20.897161  56.120596  8.035547  5.489717  67.569630  50.211664  -62.177591  22.335023  96.793494
2.727273  0.000000  0.000000  0.000000  -39.971376  4.136238  22.129074  55.898936  7.990450  5.327437  67.299068  50.855343  -60.534504  22.162412  98.925702
2.772727  0.000000  0.000000  0.000000  -40.082589  5.090301  23.603024  55.773477  7.932679  5.248572  67.025960  51.610138  -58.783331  21.978769  101.092122
2.818182  0.000000  0.000000  0.000000  -40.249778  6.092440  25.330527  55.774459  7.827557  5.290107  66.803673  52.438863  -57.018468  21.779345  103.099084
2.863636  0.000000  0.000000  0.000000  -40.474525  7.084870  27.324315  55.929737  7.637020  5.489281  66.684647  53.304520  -55.333370  21.559369  104.759835
2.909091  0.000000  0.000000  0.000000  -40.751157  8.025827  29.550007  56.253693  7.348035  5.862768  66.697095  54.175093  -53.796874  21.313435  106.068063
2.954545  0.000000  0.000000  0.000000  -41.066236  8.890708  31.918377  56.747773  6.978961  6.406343  66.843278  55.023897  -52.451445  21.035459  107.210734
3.000000  0.000000  0.000000  0.000000  -41.405944  9.655749  34.335975  57.413106  6.550787  7.116247  67.124186  55.824511  -51.338256  20.719321  108.384291
3.045455  0.000000  0.000000  0.000000  -41.756461  10.297188  36.706874  58.251311  6.086770  7.990440  67.540810  56.550515  -50.498480  20.358903  109.785177
